<svg width="1440" height="1146" viewBox="0 0 1440 1146" fill="none" xmlns="http://www.w3.org/2000/svg">
<g opacity="0.3">
<g filter="url(#filter0_d_27_9967)">
<rect x="87" y="254" width="2" height="2" rx="1" fill="white" fill-opacity="0.05"/>
<rect x="1275" y="364" width="2" height="2" rx="1" fill="white" fill-opacity="0.05"/>
<rect x="116" y="266" width="2" height="2" rx="1" fill="#FBFBFB" fill-opacity="0.2"/>
<rect x="1304" y="376" width="2" height="2" rx="1" fill="#FBFBFB" fill-opacity="0.2"/>
<rect x="196" y="195" width="2" height="2" rx="1" fill="white" fill-opacity="0.05"/>
<rect x="271" y="134" width="2" height="2" rx="1" fill="#FBFBFB" fill-opacity="0.2"/>
<rect x="363" y="243" width="2" height="2" rx="1" fill="white" fill-opacity="0.1"/>
<rect x="368" y="229" width="2" height="2" rx="1" fill="white" fill-opacity="0.05"/>
<rect x="382" y="123" width="2" height="2" rx="1" fill="white" fill-opacity="0.1"/>
<rect x="436" y="119" width="2" height="2" rx="1" fill="white" fill-opacity="0.05"/>
<rect x="492" y="276" width="2" height="2" rx="1" fill="white" fill-opacity="0.1"/>
<rect x="539" y="261" width="2" height="2" rx="1" fill="white" fill-opacity="0.05"/>
<rect x="593" y="190" width="2" height="2" rx="1" fill="white" fill-opacity="0.1"/>
<rect x="652" y="186" width="2" height="2" rx="1" fill="white" fill-opacity="0.1"/>
<rect x="1380" y="548" width="2" height="2" rx="1" fill="#FBFBFB" fill-opacity="0.2"/>
<rect x="148" y="652" width="2" height="2" rx="1" fill="white" fill-opacity="0.1"/>
<rect x="591" y="267" width="2" height="2" rx="1" fill="white" fill-opacity="0.05"/>
<rect x="1177" y="735" width="2" height="2" rx="1" fill="white" fill-opacity="0.05"/>
<rect x="1234" y="734" width="2" height="2" rx="1" fill="white" fill-opacity="0.1"/>
<rect x="1269" y="755" width="2" height="2" rx="1" fill="white" fill-opacity="0.05"/>
<rect x="1423" y="107" width="2" height="2" rx="1" fill="white" fill-opacity="0.05"/>
<rect x="956" y="278" width="2" height="2" rx="1" fill="white" fill-opacity="0.05"/>
<rect x="1004" y="292" width="2" height="2" rx="1" fill="white" fill-opacity="0.05"/>
<rect x="1113" y="378" width="2" height="2" rx="1" fill="white" fill-opacity="0.05"/>
<rect x="1195" y="234" width="2" height="2" rx="1" fill="white" fill-opacity="0.1"/>
<rect x="1207" y="174" width="2" height="2" rx="1" fill="#FBFBFB" fill-opacity="0.2"/>
<rect x="1094" y="91" width="2" height="2" rx="1" fill="white" fill-opacity="0.05"/>
<rect x="1138" y="48" width="2" height="2" rx="1" fill="white" fill-opacity="0.05"/>
<rect x="943" y="80" width="2" height="2" rx="1" fill="#FBFBFB" fill-opacity="0.2"/>
<rect x="827" y="59" width="2" height="2" rx="1" fill="white" fill-opacity="0.05"/>
<rect x="909" y="32" width="2" height="2" rx="1" fill="white" fill-opacity="0.05"/>
<rect x="1095" width="2" height="2" rx="1" fill="white" fill-opacity="0.1"/>
<rect x="1400" y="219" width="2" height="2" rx="1" fill="white" fill-opacity="0.05"/>
<rect x="227" y="794" width="2" height="2" rx="1" fill="white" fill-opacity="0.05"/>
<rect x="538" y="531" width="2" height="2" rx="1" fill="white" fill-opacity="0.1"/>
<rect x="563" y="659" width="2" height="2" rx="1" fill="#FBFBFB" fill-opacity="0.2"/>
<rect x="756" y="564" width="2" height="2" rx="1" fill="white" fill-opacity="0.05"/>
<rect x="758" y="539" width="2" height="2" rx="1" fill="white" fill-opacity="0.1"/>
<rect x="809" y="546" width="2" height="2" rx="1" fill="white" fill-opacity="0.05"/>
<rect x="777" y="586" width="2" height="2" rx="1" fill="#FBFBFB" fill-opacity="0.2"/>
<rect x="796" y="593" width="2" height="2" rx="1" fill="white" fill-opacity="0.05"/>
<rect x="786" y="611" width="2" height="2" rx="1" fill="white" fill-opacity="0.05"/>
<rect x="713" y="632" width="2" height="2" rx="1" fill="white" fill-opacity="0.05"/>
<rect x="613" y="702" width="2" height="2" rx="1" fill="white" fill-opacity="0.1"/>
<rect x="553" y="707" width="2" height="2" rx="1" fill="white" fill-opacity="0.1"/>
<rect x="856" y="723" width="2" height="2" rx="1" fill="white" fill-opacity="0.1"/>
<rect x="958" y="704" width="2" height="2" rx="1" fill="white" fill-opacity="0.05"/>
<rect x="818" y="772" width="2" height="2" rx="1" fill="white" fill-opacity="0.05"/>
<rect x="1012" y="655" width="2" height="2" rx="1" fill="white" fill-opacity="0.05"/>
<rect x="981" y="602" width="2" height="2" rx="1" fill="#FBFBFB" fill-opacity="0.2"/>
<rect x="901" y="578" width="2" height="2" rx="1" fill="white" fill-opacity="0.1"/>
<rect x="1067" y="496" width="2" height="2" rx="1" fill="white" fill-opacity="0.05"/>
<rect x="1108" y="457" width="2" height="2" rx="1" fill="white" fill-opacity="0.35"/>
<rect x="816" y="223" width="2" height="2" rx="1" fill="white" fill-opacity="0.05"/>
<rect x="822" y="199" width="2" height="2" rx="1" fill="white" fill-opacity="0.1"/>
<rect x="611" y="146" width="2" height="2" rx="1" fill="white" fill-opacity="0.1"/>
<rect x="574" y="88" width="2" height="2" rx="1" fill="white" fill-opacity="0.05"/>
<rect x="725" y="19" width="2" height="2" rx="1" fill="#FBFBFB" fill-opacity="0.2"/>
<rect x="733" y="133" width="2" height="2" rx="1" fill="white" fill-opacity="0.1"/>
<rect x="490" y="74" width="2" height="2" rx="1" fill="white" fill-opacity="0.05"/>
<rect x="236" y="267" width="2" height="2" rx="1" fill="white" fill-opacity="0.05"/>
<rect x="1424" y="377" width="2" height="2" rx="1" fill="white" fill-opacity="0.05"/>
<rect x="185" y="288" width="2" height="2" rx="1" fill="white" fill-opacity="0.05"/>
<rect x="221" y="335" width="2" height="2" rx="1" fill="white" fill-opacity="0.05"/>
<rect x="167" y="373" width="2" height="2" rx="1" fill="white" fill-opacity="0.05"/>
<rect x="174" y="380" width="2" height="2" rx="1" fill="white" fill-opacity="0.05"/>
<rect x="123" y="337" width="2" height="2" rx="1" fill="white" fill-opacity="0.05"/>
<rect x="49" y="327" width="2" height="2" rx="1" fill="white" fill-opacity="0.1"/>
<rect x="1237" y="437" width="2" height="2" rx="1" fill="white" fill-opacity="0.1"/>
<rect x="51" y="411" width="2" height="2" rx="1" fill="white" fill-opacity="0.1"/>
<rect x="7" y="618" width="2" height="2" rx="1" fill="white" fill-opacity="0.1"/>
<rect x="151" y="534" width="2" height="2" rx="1" fill="white" fill-opacity="0.1"/>
<rect x="268" y="553" width="2" height="2" rx="1" fill="white" fill-opacity="0.25"/>
<rect x="390" y="759" width="2" height="2" rx="1" fill="white" fill-opacity="0.05"/>
<rect x="379" y="510" width="2" height="2" rx="1" fill="white" fill-opacity="0.1"/>
<rect x="453" y="483" width="2" height="2" rx="1" fill="white" fill-opacity="0.05"/>
<rect x="425" y="380" width="2" height="2" rx="1" fill="white" fill-opacity="0.1"/>
</g>
<g opacity="0.5" filter="url(#filter1_f_27_9967)">
<path d="M526 795C404 749.5 45.9708 662.351 -45 599L-45 1057L1478.49 1057L1598.5 749.5C1410.14 754.248 712.664 864.616 526 795Z" fill="#4A2D79"/>
</g>
<g opacity="0.5" filter="url(#filter2_f_27_9967)">
<path d="M898.837 859.024C733.57 859.024 507.9 694.774 432.615 633.582L323 611.331C359.538 676.231 520.679 814.967 769.893 946.295C1042.12 1089.75 1476.7 1043.55 1673.45 1018.65C1693.12 821.035 1706.44 499.181 1578.28 646.358C1418.07 830.33 1105.42 859.024 898.837 859.024Z" fill="#5EE192"/>
</g>
</g>
<defs>
<filter id="filter0_d_27_9967" x="-58" y="0" width="1550" height="804" filterUnits="userSpaceOnUse" color-interpolation-filters="sRGB">
<feFlood flood-opacity="0" result="BackgroundImageFix"/>
<feColorMatrix in="SourceAlpha" type="matrix" values="0 0 0 0 0 0 0 0 0 0 0 0 0 0 0 0 0 0 127 0" result="hardAlpha"/>
<feOffset dy="4"/>
<feGaussianBlur stdDeviation="2"/>
<feComposite in2="hardAlpha" operator="out"/>
<feColorMatrix type="matrix" values="0 0 0 0 0 0 0 0 0 0 0 0 0 0 0 0 0 0 0.25 0"/>
<feBlend mode="normal" in2="BackgroundImageFix" result="effect1_dropShadow_27_9967"/>
<feBlend mode="normal" in="SourceGraphic" in2="effect1_dropShadow_27_9967" result="shape"/>
</filter>
<filter id="filter1_f_27_9967" x="-305" y="339" width="2163.5" height="978" filterUnits="userSpaceOnUse" color-interpolation-filters="sRGB">
<feFlood flood-opacity="0" result="BackgroundImageFix"/>
<feBlend mode="normal" in="SourceGraphic" in2="BackgroundImageFix" result="shape"/>
<feGaussianBlur stdDeviation="130" result="effect1_foregroundBlur_27_9967"/>
</filter>
<filter id="filter2_f_27_9967" x="-57" y="229" width="2123" height="1197" filterUnits="userSpaceOnUse" color-interpolation-filters="sRGB">
<feFlood flood-opacity="0" result="BackgroundImageFix"/>
<feBlend mode="normal" in="SourceGraphic" in2="BackgroundImageFix" result="shape"/>
<feGaussianBlur stdDeviation="190" result="effect1_foregroundBlur_27_9967"/>
</filter>
</defs>
</svg>
