<svg width="116" height="32" viewBox="0 0 116 32" fill="none" xmlns="http://www.w3.org/2000/svg">
<path fillRule="evenodd" clip-rule="evenodd" d="M75.0053 21.5234L83.8299 25.3517L79.0593 6.5393L75.3636 20.2277L74.1661 24.6449L72.9734 29.0032L71.4961 28.4928L79.0642 3.49634L86.6007 29.0032L75.0053 21.5234Z" fill="#C4C4C4"/>
<path d="M97.4922 26.9497L96.336 28.5683L85.2969 15.1079L96.2054 2L97.3712 3.59877L87.2028 15.0533L97.4922 26.9497Z" fill="#C4C4C4"/>
<path d="M68.8421 7.84766V28.7165H67.4924V18.9299H57.0138V28.7165H55.6641V7.84766H57.0138V17.5557H67.4924V7.84766H68.8421Z" fill="#C4C4C4"/>
<path d="M68.834 2.09888V3.47312H51.5578V28.7101H50.2081V3.47312H43.5234V2.09888H68.834Z" fill="#C4C4C4"/>
<path d="M41.3791 2.0791H40V28.7149H41.3791V2.0791Z" fill="#C4C4C4"/>
<path fillRule="evenodd" clip-rule="evenodd" d="M104.048 21.5234L112.873 25.3517L108.102 6.5393L104.407 20.2277L103.209 24.6449L102.016 29.0032L100.539 28.4928L108.107 3.49634L115.644 29.0032L104.048 21.5234Z" fill="#C4C4C4"/>
<path fillRule="evenodd" clip-rule="evenodd" d="M13.1099 19.6415L14.9858 20.9657V24.276L14.0975 23.5587V21.9036L13.1099 21.1852V19.6415ZM17.7995 21.1852L16.812 21.9036V23.5587L15.9237 24.276V20.9657L17.7995 19.6415V21.1852ZM2.85899 7.49163L4.31001 8.49685L6.37455 9.9258L7.17895 10.483L11.4824 13.4623L14.3513 15.4485L13.6594 16.0256C12.2437 17.2052 10.2608 17.3718 8.68073 16.4879L6.82695 15.2046L6.52572 11.6858L0.00661149 7.17273V9.22071C0.00661149 11.3934 1.07253 13.427 2.85899 14.6639L4.31001 15.6692L7.02778 17.5505L8.49425 18.5657L8.9621 24.0244L7.73067 23.1725L7.49564 23.0103L7.1944 19.4915L0.55833 14.8968V16.9447C0.55833 18.9398 1.45653 20.8178 2.98589 22.0691L3.01017 22.089C3.03886 22.1121 3.06754 22.1353 3.09623 22.1574L15.4547 32L27.8121 22.1574C27.8408 22.1342 27.8695 22.1121 27.8982 22.089L27.9236 22.0691C29.4529 20.8178 30.3511 18.9398 30.3511 16.9447V14.8968L23.715 19.4904L23.4138 23.0092L23.1788 23.1725L21.9473 24.0255L22.4152 18.5668L23.8817 17.5516L26.5994 15.6692L28.0504 14.6639C29.8369 13.4281 30.9028 11.3934 30.9028 9.22071V7.17273L24.3837 11.6858L24.0825 15.2046L22.2287 16.4879C20.6497 17.3718 18.6657 17.2052 17.25 16.0256L16.5582 15.4485L19.4271 13.4623L23.7305 10.483L24.5349 9.9258L26.5994 8.49685L28.0504 7.49163C29.8369 6.25578 30.9028 4.22105 30.9028 2.04839V0.015831L25.0222 4.15967L24.7368 7.5799L23.7305 8.27617L23.2693 8.59506L19.4271 11.2554L16.5582 13.2416H15.9513L16.8616 10.7037C16.8616 10.7037 16.8086 9.65546 16.5582 8.27617C16.3077 6.89688 15.4547 4.41415 15.4547 4.41415C15.4547 4.41415 14.6018 6.89688 14.3513 8.27617C14.1008 9.65546 14.0478 10.7037 14.0478 10.7037L14.9582 13.2416H14.3513L11.4824 11.2554L7.64019 8.59506L7.17895 8.27617L6.17372 7.5799L5.87723 4.14882L0 0L0.00661149 2.04839C0.00661149 4.22105 1.07253 6.25578 2.85899 7.49163Z" fill="#C4C4C4"/>
</svg>
